<svg width="18" height="18" viewBox="0 0 18 18" fill="none" xmlns="http://www.w3.org/2000/svg">
<rect width="18" height="18" fill="#1E1E1E"/>
<g id="Monitoring Dashboard">
<path d="M-1357 -211C-1357 -212.105 -1356.1 -213 -1355 -213H1785C1786.1 -213 1787 -212.105 1787 -211V831C1787 832.105 1786.1 833 1785 833H-1355C-1356.1 833 -1357 832.105 -1357 831V-211Z" fill="#404040"/>
<path d="M-1355 -212H1785V-214H-1355V-212ZM1786 -211V831H1788V-211H1786ZM1785 832H-1355V834H1785V832ZM-1356 831V-211H-1358V831H-1356ZM-1355 832C-1355.55 832 -1356 831.552 -1356 831H-1358C-1358 832.657 -1356.66 834 -1355 834V832ZM1786 831C1786 831.552 1785.55 832 1785 832V834C1786.66 834 1788 832.657 1788 831H1786ZM1785 -212C1785.55 -212 1786 -211.552 1786 -211H1788C1788 -212.657 1786.66 -214 1785 -214V-212ZM-1355 -214C-1356.66 -214 -1358 -212.657 -1358 -211H-1356C-1356 -211.552 -1355.55 -212 -1355 -212V-214Z" fill="white" fill-opacity="0.1"/>
<g id="1">
<rect width="1440" height="812" transform="translate(-1254 -112)" fill="white"/>
<g id="Sectional Tab Bar">
</g>
<g id="Frame 19662">
<rect x="-16" y="-11" width="152" height="40" rx="7" fill="#F6D8D8"/>
<g id="x-circle" clip-path="url(#clip0_0_1)">
<path id="Vector (Stroke)" fill-rule="evenodd" clip-rule="evenodd" d="M9 2.25C5.27208 2.25 2.25 5.27208 2.25 9C2.25 12.7279 5.27208 15.75 9 15.75C12.7279 15.75 15.75 12.7279 15.75 9C15.75 5.27208 12.7279 2.25 9 2.25ZM0.75 9C0.75 4.44365 4.44365 0.75 9 0.75C13.5563 0.75 17.25 4.44365 17.25 9C17.25 13.5563 13.5563 17.25 9 17.25C4.44365 17.25 0.75 13.5563 0.75 9Z" fill="#D13B3B"/>
<path id="Vector (Stroke)_2" fill-rule="evenodd" clip-rule="evenodd" d="M11.7803 6.21967C12.0732 6.51256 12.0732 6.98744 11.7803 7.28033L7.28033 11.7803C6.98744 12.0732 6.51256 12.0732 6.21967 11.7803C5.92678 11.4874 5.92678 11.0126 6.21967 10.7197L10.7197 6.21967C11.0126 5.92678 11.4874 5.92678 11.7803 6.21967Z" fill="#D13B3B"/>
<path id="Vector (Stroke)_3" fill-rule="evenodd" clip-rule="evenodd" d="M6.21967 6.21967C6.51256 5.92678 6.98744 5.92678 7.28033 6.21967L11.7803 10.7197C12.0732 11.0126 12.0732 11.4874 11.7803 11.7803C11.4874 12.0732 11.0126 12.0732 10.7197 11.7803L6.21967 7.28033C5.92678 6.98744 5.92678 6.51256 6.21967 6.21967Z" fill="#D13B3B"/>
</g>
</g>
</g>
</g>
<defs>
<clipPath id="clip0_0_1">
<rect width="18" height="18" fill="white"/>
</clipPath>
</defs>
</svg>
